<svg width="0" height="0" class="hidden">
  <symbol viewBox="0 0 25 24" fill="none" xmlns="http://www.w3.org/2000/svg" id="check">
    <path fill-rule="evenodd" clip-rule="evenodd" d="M.171 12c0-6.63 5.351-12 11.958-12 6.6 0 11.957 5.37 11.957 12 0 6.624-5.357 12-11.957 12C5.522 24 .17 18.624.17 12zm3.587 0l5.979 6L20.498 7.2l-1.691-1.698-9.07 9.102-4.287-4.302L3.758 12z" fill="#FF4F4F"></path>
  </symbol>
  <symbol viewBox="0 0 32 36" fill="none" xmlns="http://www.w3.org/2000/svg" id="atlas">
    <path fill-rule="evenodd" clip-rule="evenodd" d="M31.5 25.2c0 .675-.225 1.125-.675 1.35-.225.9-.225 4.05 0 5.175.45.45.675.9.675 1.35V34.2c0 1.125-.9 1.8-1.8 1.8H6.75C2.925 36 0 33.075 0 29.25V6.75C0 2.925 2.925 0 6.75 0H29.7c1.125 0 1.8.675 1.8 1.8v23.4zM14.103 12.375c.187-3.113 1.106-5.01 1.647-5.533.54.524 1.46 2.421 1.648 5.533h-3.295zm8.283 0a6.74 6.74 0 0 0-3.748-4.95c.54 1.34.895 3.05 1 4.95h2.748zm0 2.25h-2.748c-.105 1.9-.46 3.61-1 4.95a6.74 6.74 0 0 0 3.748-4.95zm-9.524-7.2a6.739 6.739 0 0 0-3.748 4.95h2.748c.105-1.9.46-3.61 1-4.95zm-1 7.2c.105 1.9.46 3.61 1 4.95a6.739 6.739 0 0 1-3.748-4.95h2.748zm5.535 0h-3.295c.187 3.112 1.107 5.01 1.647 5.533.542-.524 1.461-2.421 1.648-5.533zM15.75 4.5a9 9 0 1 1 0 18 9 9 0 0 1 0-18zm-9 27H27V27H6.75c-1.125 0-2.25.9-2.25 2.25s.9 2.25 2.25 2.25z"
      fill="#FF4F4F"></path>
  </symbol>
  <symbol viewBox="0 0 34 34" fill="none" xmlns="http://www.w3.org/2000/svg" id="send-email">
    <path fill-rule="evenodd" clip-rule="evenodd" d="M9.923 21.884C7.749 20.592 0 15.937 0 15.937S30.3 1.27 32.917 0L9.923 21.884zM16.989 34s-4.52-8.282-5.939-10.89L34 .966l-.021.096C33.713 1.593 16.989 34 16.989 34z" fill="#fff"></path>
  </symbol>
  <symbol viewBox="0 0 36 36" fill="none" xmlns="http://www.w3.org/2000/svg" id="pigeon">
    <path fill-rule="evenodd" clip-rule="evenodd" d="M20.25 11.754V9.777A19.046 19.046 0 0 1 16.447.974C16.299.024 15.11-.348 14.492.39a18.962 18.962 0 0 0-3.438 6.083 16.895 16.895 0 0 0 9.196 5.28zm7.875-7.257a5.63 5.63 0 0 0-5.625 5.632v4.177A19.096 19.096 0 0 1 6.118 2.936c-.387-.88-1.631-.928-2.039-.063a18.98 18.98 0 0 0-1.828 8.135c0 4.979 2.398 9.626 5.983 13.072a28.72 28.72 0 0 0 2.736 2.306L.852 28.918a1.132 1.132 0 0 0-.668 1.715C1.407 32.525 4.431 35.731 10.956 36a2.26 2.26 0 0 0 1.553-.556l4.585-3.945H22.5c6.216 0 11.25-5.027 11.25-11.243V8.997l2.25-4.5h-7.875zM27 10.129c0 .619.506 1.125 1.125 1.125s1.125-.506 1.125-1.125-.506-1.125-1.125-1.125S27 9.51 27 10.13z"
      fill="#FF4F4F"></path>
  </symbol>
  <symbol viewBox="0 0 36 36" fill="none" xmlns="http://www.w3.org/2000/svg" id="hand">
    <path fill-rule="evenodd" clip-rule="evenodd" d="M35.813 21.604a2.247 2.247 0 0 0-2.063-1.354h-4.5V5.625a2.82 2.82 0 0 0-2.813-2.813 2.82 2.82 0 0 0-2.812 2.813v9.422a.703.703 0 0 1-.703.703h-1.406a.703.703 0 0 1-.703-.703V2.812A2.82 2.82 0 0 0 18 0a2.82 2.82 0 0 0-2.813 2.813v12.234a.703.703 0 0 1-.703.703h-1.406a.703.703 0 0 1-.703-.703V5.625a2.82 2.82 0 0 0-2.812-2.813A2.82 2.82 0 0 0 6.75 5.626V20.25h-4.5c-.896 0-1.707.532-2.063 1.354a2.248 2.248 0 0 0 .418 2.43l7.22 7.737C10.334 34.46 14.041 36 18 36c3.96 0 7.666-1.541 10.176-4.229l7.22-7.736c.61-.655.775-1.61.417-2.431zM18 29.25c-3.728 0-6.75-4.5-6.75-4.5s3.022-4.5 6.75-4.5 6.75 4.5 6.75 4.5-3.022 4.5-6.75 4.5zm-2.25-4.5a2.25 2.25 0 1 1 4.5 0 2.25 2.25 0 0 1-4.5 0z"
      fill="#FF4F4F"></path>
  </symbol>
  <symbol viewBox="0 0 36 33" fill="none" xmlns="http://www.w3.org/2000/svg" id="biohazard">
    <path fill-rule="evenodd" clip-rule="evenodd" d="M31.34 11.985c-1.099-.649-2.266-1.035-3.451-1.241.374-1.105.624-2.271.624-3.507 0-2.558-.905-5.04-2.558-7a.49.49 0 0 0-.624-.112.516.516 0 0 0-.225.605c.281.861.412 1.64.412 2.402 0 4.23-3.357 7.668-7.487 7.668s-7.487-3.438-7.487-7.668c0-.755.137-1.541.412-2.402a.516.516 0 0 0-.225-.605.49.49 0 0 0-.624.112 10.893 10.893 0 0 0-2.558 7c0 1.236.244 2.402.624 3.507-1.18.206-2.352.592-3.45 1.241C2.564 13.265.917 15.311.087 17.75a.52.52 0 0 0 .219.612.488.488 0 0 0 .623-.1c.587-.674 1.186-1.192 1.822-1.566 3.575-2.115 8.161-.855 10.226 2.808 2.066 3.662.836 8.36-2.739 10.475-.636.38-1.372.649-2.233.836a.516.516 0 0 0-.4.506c.007.25.169.455.406.499 2.477.486 5.029.05 7.187-1.23 1.123-.66 2.053-1.528 2.827-2.501.773.973 1.703 1.84 2.826 2.502a10.216 10.216 0 0 0 7.188 1.229.504.504 0 0 0 .405-.5.51.51 0 0 0-.4-.505c-.866-.18-1.596-.455-2.233-.836-3.575-2.115-4.804-6.813-2.739-10.475 2.065-3.663 6.651-4.923 10.226-2.808.637.38 1.236.892 1.822 1.566a.488.488 0 0 0 .624.1c.206-.125.3-.38.218-.612-.817-2.44-2.464-4.492-4.623-5.765zM18.024 7.05c1.16 0 2.258.237 3.294.6a5.602 5.602 0 0 0 1.84-2.54 12.89 12.89 0 0 0-5.128-1.06c-1.816 0-3.55.374-5.122 1.054a5.602 5.602 0 0 0 1.84 2.539c1.03-.356 2.121-.593 3.276-.593zM10.27 27.434a5.682 5.682 0 0 0 1.528-2.646 9.908 9.908 0 0 1-3.675-6.838 5.222 5.222 0 0 0-1.647-.287 5.08 5.08 0 0 0-1.404.194 12.994 12.994 0 0 0 5.198 9.577zm15.516-.007a5.702 5.702 0 0 1-1.528-2.651 9.914 9.914 0 0 0 3.662-6.82c.537-.174 1.086-.293 1.66-.293.468 0 .936.062 1.385.187a12.955 12.955 0 0 1-5.179 9.577zM15.03 17.04a2.996 2.996 0 1 0 5.991-.001 2.996 2.996 0 0 0-5.991.001z"
      fill="#FF4F4F"></path>
  </symbol>
  <symbol viewBox="0 0 36 22" fill="none" xmlns="http://www.w3.org/2000/svg" id="handshake">
    <path fill-rule="evenodd" clip-rule="evenodd" d="M19.62 0h4.832c.478 0 .94.194 1.271.537l3.071 3.12v11.057a4.08 4.08 0 0 0-.444-.44L20.16 7.52l1.468-1.366a.923.923 0 0 0 .056-1.291.894.894 0 0 0-1.27-.057l-4.495 4.183a.028.028 0 0 1-.011.005.029.029 0 0 0-.012.006c-.94.851-2.441.64-3.155-.154a2.299 2.299 0 0 1 .118-3.2l.008-.012.009-.011L18.405.48C18.737.171 19.17 0 19.62 0zM30.6 16.463V3.669H36V18.29h-3.6c-.996 0-1.8-.817-1.8-1.828zm2.7 0a.91.91 0 0 1-.9-.914.91.91 0 0 1 .9-.915c.495 0 .9.412.9.915a.91.91 0 0 1-.9.914zM3.6 18.286H0V3.669h5.4v12.788c0 1.012-.804 1.829-1.8 1.829zm-.9-3.652c.495 0 .9.412.9.915a.91.91 0 0 1-.9.914.91.91 0 0 1-.9-.914c0-.509.405-.915.9-.915zm16.121-5.863l8.398 6.926c.771.64.89 1.789.26 2.577l-.535.669a1.778 1.778 0 0 1-2.531.268l-.304-.251-1.767 2.206a2.068 2.068 0 0 1-2.941.308l-1.007-.885-.011.011a3.561 3.561 0 0 1-5.063.531l-5.09-4.68H7.2V3.657l3.077-3.12A1.783 1.783 0 0 1 11.548 0h4.714L11.66 4.28c-1.643 1.531-1.761 4.131-.248 5.811a4.011 4.011 0 0 0 5.72.252l1.688-1.572z"
      fill="#FF4F4F"></path>
  </symbol>
  <symbol viewBox="0 0 32 36" fill="none" xmlns="http://www.w3.org/2000/svg" id="user-astronaut">
    <path fill-rule="evenodd" clip-rule="evenodd" d="M5.45 15.75H4.5a1.128 1.128 0 0 1-1.125-1.125v-6.75c0-.619.506-1.125 1.125-1.125h.95C7.185 2.777 11.136 0 15.75 0s8.564 2.777 10.3 6.75H27c.619 0 1.125.506 1.125 1.125v6.75c0 .619-.506 1.125-1.125 1.125h-.95c-1.736 3.973-5.688 6.75-10.3 6.75-4.613 0-8.564-2.777-10.3-6.75zm5.237-9c-1.863 0-3.374 1.259-3.374 2.813v1.687a6.752 6.752 0 0 0 6.75 6.75h3.374a6.752 6.752 0 0 0 6.75-6.75V9.562c0-1.553-1.511-2.812-3.375-2.812H10.688zm1.688 7.875l.844-2.531 2.531-.844-2.531-.844-.844-2.531-.844 2.531L9 11.25l2.531.844.844 2.531zM15.75 24.75c2.686 0 5.182-.794 7.284-2.152 4.747.5 8.466 4.472 8.466 9.352v.675A3.376 3.376 0 0 1 28.125 36H22.5v-4.5a2.248 2.248 0 0 0-2.25-2.25h-9A2.248 2.248 0 0 0 9 31.5V36H3.375A3.376 3.376 0 0 1 0 32.625v-.675c0-4.88 3.72-8.852 8.466-9.352a13.382 13.382 0 0 0 7.284 2.152zm3.375 6.75c-.619 0-1.125.506-1.125 1.125s.506 1.125 1.125 1.125 1.125-.506 1.125-1.125-.506-1.125-1.125-1.125zm-7.875 1.125c0-.619.506-1.125 1.125-1.125s1.125.506 1.125 1.125V36h-2.25v-3.375z"
      fill="#FF4F4F"></path>
  </symbol>
</svg>